<svg xmlns="http://www.w3.org/2000/svg" width="420" height="324.15" viewBox="0 0 420 324.15"><defs><style>.a,.c,.e{fill:none;}.a,.c{stroke:#c00c00;}.a{stroke-linecap:round;stroke-width:4px;stroke-dasharray:14;}.b{fill:#c00c00;}.c{stroke-width:6px;}.d{stroke:none;}</style></defs><g transform="translate(-353 -6620.239)"><path class="a" d="M0,0H342.222" transform="translate(392.444 6622.8)"/><g transform="translate(363 6682.206)"><line class="a" x2="172.615" y2="245.038"/><line class="a" x1="172.615" y2="245.038" transform="translate(227.778)"/></g><g transform="translate(695.448 6620.169)"><path class="b" d="M30.507,30.507A13.254,13.254,0,1,0,17.254,17.254,13.25,13.25,0,0,0,30.507,30.507Zm0,6.627C21.661,37.134,4,41.574,4,50.388v6.627L30.507,67.5,57.015,57.015V50.388C57.015,41.574,39.354,37.134,30.507,37.134Z" transform="translate(7.773 10.854)"/><g class="c" transform="translate(-0.448 0.069)"><ellipse class="d" cx="39" cy="38.5" rx="39" ry="38.5"/><ellipse class="e" cx="39" cy="38.5" rx="36" ry="35.5"/></g></g><g transform="translate(353 6620.169)"><path class="b" d="M30.507,30.507A13.254,13.254,0,1,0,17.254,17.254,13.25,13.25,0,0,0,30.507,30.507Zm0,6.627C21.661,37.134,4,41.574,4,50.388v6.627L30.507,67.5,57.015,57.015V50.388C57.015,41.574,39.354,37.134,30.507,37.134Z" transform="translate(8.102 10.854)"/><g class="c" transform="translate(0 0.069)"><ellipse class="d" cx="39" cy="38.5" rx="39" ry="38.5"/><ellipse class="e" cx="39" cy="38.5" rx="36" ry="35.5"/></g></g><g transform="translate(523.788 6866.767)"><path class="b" d="M30.507,30.507A13.254,13.254,0,1,0,17.254,17.254,13.25,13.25,0,0,0,30.507,30.507Zm0,6.627C21.661,37.134,4,41.574,4,50.388v6.627L30.507,67.5,57.015,57.015V50.388C57.015,41.574,39.354,37.134,30.507,37.134Z" transform="translate(8.306 10.119)"/><g class="c" transform="translate(0.212 0.472)"><ellipse class="d" cx="39" cy="38.5" rx="39" ry="38.5"/><ellipse class="e" cx="39" cy="38.5" rx="36" ry="35.5"/></g></g></g></svg>